<?xml version="1.0" encoding="utf-8"?>
<svg version="1.1" id="Layer_1" xmlns="http://www.w3.org/2000/svg" xmlns:xlink="http://www.w3.org/1999/xlink" x="0px" y="0px"
	 viewBox="0 0 1024 1024" style="enable-background:new 0 0 1024 1024;" xml:space="preserve">
<style type="text/css">
	.st0{fill:#FFFFFF;}
</style>
<g>
	<path class="st0" d="M897.5,1024H126.5C56.6,1024,0,967.4,0,897.5V126.5C0,56.6,56.6,0,126.5,0h771.1C967.4,0,1024,56.6,1024,126.5
		v771.1C1024,967.4,967.4,1024,897.5,1024z"/>
</g>
<g>
	<polygon points="585.2,658.9 512,732.1 438.8,658.9 365.1,732.1 512,879 658.9,732.1 	"/>
	<polygon points="658.9,585.2 732.1,512 658.9,438.8 732.1,365.1 879,512 732.1,658.9 	"/>
	<polygon points="365.1,438.8 291.9,512 365.1,585.2 291.9,658.9 145,512 291.9,365.1 	"/>
	<polygon points="438.8,365.1 512,291.9 585.2,365.1 658.9,291.9 512,145 365.1,291.9 	"/>
	<rect x="533.4" y="533.3" transform="matrix(0.7071 -0.7071 0.7071 0.7071 -242.3375 585.3179)" width="103.9" height="103.9"/>
	<rect x="386.7" y="386.9" transform="matrix(0.7071 -0.7071 0.7071 0.7071 -181.837 438.6521)" width="103.9" height="103.9"/>
	<rect x="533.2" y="386.7" transform="matrix(0.7071 -0.7071 0.7071 0.7071 -138.7545 542.2352)" width="103.9" height="103.9"/>
	<rect x="386.9" y="533.5" transform="matrix(0.7071 -0.7071 0.7071 0.7071 -285.4199 481.7348)" width="103.9" height="103.9"/>
</g>
</svg>
