<?xml version="1.0" encoding="UTF-8"?>
<svg data-name="Layer 1" version="1.1" viewBox="0 0 1e3 1e3" xmlns="http://www.w3.org/2000/svg" xmlns:cc="http://creativecommons.org/ns#" xmlns:dc="http://purl.org/dc/elements/1.1/" xmlns:rdf="http://www.w3.org/1999/02/22-rdf-syntax-ns#">
 <metadata>
  <rdf:RDF>
   <cc:Work rdf:about="">
    <dc:format>image/svg+xml</dc:format>
    <dc:type rdf:resource="http://purl.org/dc/dcmitype/StillImage"/>
    <dc:title>lokinet icon</dc:title>
   </cc:Work>
  </rdf:RDF>
 </metadata>
 <defs>
  <style type="text/css">.cls-1{fill:#fff;}.cls-2{fill:#6cbe45;}.cls-3{fill:none;stroke:#fff;stroke-linecap:round;stroke-miterlimit:10;stroke-width:9px;}.cls-4{fill:#1c1c1c;}</style>
 </defs>
 <title>lokinet icon</title>
 <circle class="cls-1" cx="500" cy="500" r="500"/>
 <path class="cls-2" transform="translate(.02 .11)" d="M502.6,560.44l8,7.34,14.5,13.09c.74.67,1.42,1.38,2.09,2.09L541,595.54a20.87,20.87,0,0,1,0,31l-16.8,15.2a38.3,38.3,0,0,0,4-3.08l94.71-85.73-55.92-50.64Z"/>
 <path class="cls-2" transform="translate(.02 .11)" d="m754.35 415.61v-0.52a69.39 69.39 0 0 0-23.13-50.47l-187.92-167.57a20.88 20.88 0 0 1-3.77 26.39l-14.07 12.73c-0.09 0.08-0.16 0.17-0.25 0.25l-25.1 22.71 168.94 150.65-46.22 41.83 116.27 105.29a46.54 46.54 0 0 1 15.28 34.54c0 1.28-0.1 2.55-0.21 3.82a38.26 38.26 0 0 0 0.23-4v-174.88c0-0.26-0.04-0.52-0.05-0.77z"/>
 <path class="cls-2" transform="translate(.02 .11)" d="m500 441.68-38.63-35a20.88 20.88 0 0 1 0-31l10.49-9.49 0.35-0.43a37.93 37.93 0 0 1 6.07-5.38 39 39 0 0 0-3.46 2.75l-95.23 86.2 56 50.57z"/>
 <path class="cls-2" transform="translate(.02 .11)" d="m460.61 776.35 11.83-10.7a32.29 32.29 0 0 1 2.34-2.34l25-22.59-166.32-148.34 46.15-41.77-118.72-107.23a46.58 46.58 0 0 1-15.31-34.47c0-1.48 0.09-3 0.23-4.43a36.09 36.09 0 0 0-0.25 4.18v174.85a69.42 69.42 0 0 0 23.19 51.75l188.46 168.07a20.86 20.86 0 0 1 3.4-26.98z"/>
 <path class="cls-3" transform="translate(.02 .11)" d="m525 422.75"/>
 <path class="cls-4" transform="translate(.02 .11)" d="M754.38,591.44A46.54,46.54,0,0,0,739.1,556.9L525.19,363.21c-.24-.22-.51-.41-.76-.62l-10.26-9.29a20.86,20.86,0,0,0-28,0l-7.92,7.16a37.93,37.93,0,0,0-6.07,5.38l-.35.43-10.49,9.49a20.88,20.88,0,0,0,0,31l38.83,35.15,0,0,165.1,149.5-190.51,172a32.29,32.29,0,0,0-2.34,2.34l-11.83,10.7a20.87,20.87,0,0,0,0,30.95l24.82,22.48a20.87,20.87,0,0,0,28,0l41.08-37.17-.08-.08L739,625.91A46.58,46.58,0,0,0,754.38,591.44Z"/>
 <path class="cls-4" transform="translate(.02 .11)" d="M541,595.54,527.21,583c-.67-.71-1.35-1.42-2.09-2.09l-14.5-13.09-8.68-7.95-.06,0-167.22-151L525.21,236.42c.09-.08.16-.17.25-.25l14.07-12.73a20.88,20.88,0,0,0,0-31L514.71,170a20.87,20.87,0,0,0-28,0l-41.08,37.18h0L260.85,374.39a46.56,46.56,0,0,0,0,69L445.27,609.91l-.06.05,42.89,39a20.87,20.87,0,0,0,28,0l24.83-22.47A20.87,20.87,0,0,0,541,595.54Z"/>
 <path d="m173.66 173.36 646.24 642.31" fill="#f00" stroke="#f00" stroke-linecap="round" stroke-width="50"/>
 <path d="m824.02 175.25-648.03 648.03" fill="none" stroke="#f00" stroke-linecap="round" stroke-width="50"/>
</svg>
