<?xml version="1.0" encoding="utf-8"?>
<!-- Generator: Adobe Illustrator 22.0.1, SVG Export Plug-In . SVG Version: 6.00 Build 0)  -->
<svg version="1.1" id="Layer_1" xmlns="http://www.w3.org/2000/svg" xmlns:xlink="http://www.w3.org/1999/xlink" x="0px" y="0px"
	 viewBox="0 0 1000 368" style="enable-background:new 0 0 1000 368;" xml:space="preserve">
<style type="text/css">
	.st0{fill:#FFFFFF;}
	.st1{fill:url(#SVGID_1_);}
	.st2{fill:#333333;}
	.st3{fill:url(#SVGID_2_);}
	.st4{fill:url(#SVGID_3_);}
	.st5{fill:#00263A;}
	.st6{fill:url(#SVGID_4_);}
	.st7{fill:url(#SVGID_5_);}
	.st8{fill:url(#SVGID_6_);}
	.st9{fill:url(#SVGID_7_);}
	.st10{fill:url(#SVGID_8_);}
	.st11{fill:url(#SVGID_9_);}
	.st12{fill:url(#SVGID_10_);}
	.st13{fill:url(#SVGID_11_);}
	.st14{fill:url(#SVGID_12_);}
	.st15{fill:url(#SVGID_13_);}
	.st16{fill:url(#SVGID_14_);}
	.st17{fill:url(#SVGID_15_);}
	.st18{fill:url(#SVGID_16_);}
	.st19{fill:url(#SVGID_17_);}
	.st20{opacity:6.000000e-02;}
	.st21{opacity:4.000000e-02;fill:#FFFFFF;}
	.st22{opacity:7.000000e-02;fill:#FFFFFF;}
	.st23{fill:#008522;}
	.st24{fill:#78BE20;}
	.st25{fill:#005F61;}
	.st26{fill:url(#SVGID_18_);}
</style>
<g>
	<path class="st0" d="M366.6,78h37.1v178.9H497v32.7H366.6V78z"/>
	<path class="st0" d="M619.8,74.5C683.3,74.5,728,120.8,728,184c0,63.1-44.7,109.5-108.2,109.5c-63.5,0-108.2-46.3-108.2-109.5
		C511.6,120.8,556.3,74.5,619.8,74.5z M619.8,107.5c-42.8,0-70.1,32.7-70.1,76.5c0,43.5,27.3,76.5,70.1,76.5
		c42.5,0,70.1-33,70.1-76.5C689.9,140.2,662.3,107.5,619.8,107.5z"/>
	<path class="st0" d="M819.4,200.5L801,222v67.6h-37.1V78H801v100.9L883.8,78h46l-86,99.9l92.3,111.7h-45.7L819.4,200.5z"/>
	<path class="st0" d="M960.9,78H998v211.6h-37.1V78z"/>
</g>
<g>
	<linearGradient id="SVGID_1_" gradientUnits="userSpaceOnUse" x1="86.8402" y1="268.7968" x2="86.8402" y2="0.426">
		<stop  offset="0" style="stop-color:#78BE20"/>
		<stop  offset="0.1197" style="stop-color:#58AF21"/>
		<stop  offset="0.3682" style="stop-color:#199122"/>
		<stop  offset="0.486" style="stop-color:#008522"/>
		<stop  offset="0.6925" style="stop-color:#007242"/>
		<stop  offset="0.8806" style="stop-color:#006459"/>
		<stop  offset="1" style="stop-color:#005F61"/>
	</linearGradient>
	<polygon class="st1" points="132.1,268.8 0.3,137 136.9,0.4 173.3,36.8 73.1,137 168.5,232.4 	"/>
</g>
<g>
	<linearGradient id="SVGID_2_" gradientUnits="userSpaceOnUse" x1="212.9564" y1="367.5197" x2="212.9564" y2="99.1484">
		<stop  offset="0" style="stop-color:#78BE20"/>
		<stop  offset="0.1197" style="stop-color:#58AF21"/>
		<stop  offset="0.3682" style="stop-color:#199122"/>
		<stop  offset="0.486" style="stop-color:#008522"/>
		<stop  offset="0.6925" style="stop-color:#007242"/>
		<stop  offset="0.8806" style="stop-color:#006459"/>
		<stop  offset="1" style="stop-color:#005F61"/>
	</linearGradient>
	<polygon class="st3" points="162.9,367.5 126.5,331.1 226.7,230.9 131.3,135.6 167.7,99.1 299.5,230.9 	"/>
</g>
</svg>
